# xmcd
#
# Track frame offsets:
#	150
#	18590
#	29459
#	52849
#	75300
#	98497
#	121340
#	141924
#
# Disc length: 2049 seconds
#
# Revision: 0
# Processed by: cddbd v1.5.2PL0 Copyright (c) Steve Scherf et al.
# Submitted via: EasyCDDAExtractor 16.0.6.1
#
DISCID=5807ff08
DTITLE=Plutot Blues
DYEAR=1900
DGENRE=Blues
TTITLE0=Down
TTITLE1=Come Together
TTITLE2=J'ecume
TTITLE3=Voodoo Chile
TTITLE4=Since i've Been loving you
TTITLE5=Spoonfull
TTITLE6=Chevrolet
TTITLE7=La grange
EXTD=
EXTT0=
EXTT1=
EXTT2=
EXTT3=
EXTT4=
EXTT5=
EXTT6=
EXTT7=
PLAYORDER=
